<?xml version="1.0" encoding="utf-8"?>
<!-- Generator: Adobe Illustrator 16.0.3, SVG Export Plug-In . SVG Version: 6.00 Build 0)  -->
<!DOCTYPE svg PUBLIC "-//W3C//DTD SVG 1.1//EN" "http://www.w3.org/Graphics/SVG/1.1/DTD/svg11.dtd">
<svg version="1.1" id="Layer_1" xmlns="http://www.w3.org/2000/svg" xmlns:xlink="http://www.w3.org/1999/xlink" x="0px" y="0px"
	 width="400px" height="400px" viewBox="0 0 400 400" style="enable-background:new 0 0 400 400;" xml:space="preserve">
<style type="text/css">
<![CDATA[
	.st0{fill:#80E252;}
	.st1{fill:#FFFFFF;}
]]>
</style>
<path class="st0" d="M269.695,346.988c-23.134,10.994-49.195,16.701-76.562,15.545c-89.766-3.797-159.458-79.638-155.666-169.402
	c3.789-89.765,79.63-159.456,169.396-155.664c89.762,3.792,159.46,79.637,155.67,169.403l37.248,1.572
	C404.442,98.106,318.77,4.884,208.438,0.221C98.103-4.438,4.88,81.224,0.219,191.556c-4.658,110.335,81.007,203.558,191.348,208.223
	c33.508,1.418,65.429-5.55,93.783-18.958L269.695,346.988z"/>
<path class="st1" d="M269.695,346.988l15.654,33.833c64.99-30.742,111.188-95.559,114.432-172.379l-37.248-1.572
	C359.897,269.26,322.436,321.929,269.695,346.988z"/>
</svg>
