<?xml version="1.0" encoding="utf-8"?>
<!-- Generator: Adobe Illustrator 16.0.3, SVG Export Plug-In . SVG Version: 6.00 Build 0)  -->
<!DOCTYPE svg PUBLIC "-//W3C//DTD SVG 1.1//EN" "http://www.w3.org/Graphics/SVG/1.1/DTD/svg11.dtd">
<svg version="1.1" id="Layer_1" xmlns="http://www.w3.org/2000/svg" xmlns:xlink="http://www.w3.org/1999/xlink" x="0px" y="0px"
	 width="400px" height="400px" viewBox="0 0 400 400" style="enable-background:new 0 0 400 400;" xml:space="preserve">
<style type="text/css">
<![CDATA[
	.st0{fill:#FFFFFF;}
	.st1{fill:#0F9305;}
]]>
</style>
<path class="st1" d="M342.26,232.325C360.115,153.756,310.9,75.594,232.325,57.738C153.751,39.886,75.582,89.101,57.728,167.67
	c-5.46,24.013-4.619,47.972,1.378,70.204l57.26-14.753c-3.719-13.38-4.265-27.851-0.972-42.344
	c10.614-46.724,57.104-75.996,103.825-65.381c46.724,10.625,75.995,57.101,65.378,103.831
	c-10.616,46.719-57.104,75.998-103.827,65.376l-13.104,57.66C246.238,360.113,324.406,310.893,342.26,232.325z"/>
<path class="st0" d="M116.366,223.121l-57.26,14.753c13.621,50.5,54,91.994,108.561,104.389l13.104-57.66
	C148.54,277.279,124.622,252.888,116.366,223.121z"/>
</svg>
