<?xml version="1.0" encoding="utf-8"?>
<!-- Generator: Adobe Illustrator 16.0.3, SVG Export Plug-In . SVG Version: 6.00 Build 0)  -->
<!DOCTYPE svg PUBLIC "-//W3C//DTD SVG 1.1//EN" "http://www.w3.org/Graphics/SVG/1.1/DTD/svg11.dtd">
<svg version="1.1" id="Layer_1" xmlns="http://www.w3.org/2000/svg" xmlns:xlink="http://www.w3.org/1999/xlink" x="0px" y="0px"
	 width="400px" height="400px" viewBox="0 0 400 400" style="enable-background:new 0 0 400 400;" xml:space="preserve">
<style type="text/css">
<![CDATA[
	.st0{fill:#FFFFFF;}
	.st1{fill:#063501;}
]]>
</style>
<path class="st1" d="M217.257,344.865c-80,9.529-152.593-47.598-162.128-127.604c-9.532-80.002,47.601-152.59,127.606-162.124
	c80.004-9.532,152.599,47.598,162.132,127.603l16.669-1.985C350.903,91.542,269.962,27.837,180.752,38.465
	C91.535,49.097,27.831,130.036,38.464,219.246c10.627,89.218,91.574,152.915,180.782,142.288
	c27.208-3.244,52.016-13.048,73.09-27.603l-9.396-13.906C264.006,333.126,241.713,341.954,217.257,344.865z"/>
<path class="st0" d="M361.536,180.754l-16.669,1.985c6.621,55.554-18.924,107.508-61.927,137.286l9.396,13.906
	C340.379,300.748,368.928,242.764,361.536,180.754z"/>
</svg>
